<?xml version="1.0" encoding="iso-8859-1"?>
<!-- Uploaded to: SVG Repo, www.svgrepo.com, Generator: SVG Repo Mixer Tools -->
<!DOCTYPE svg PUBLIC "-//W3C//DTD SVG 1.1//EN" "http://www.w3.org/Graphics/SVG/1.1/DTD/svg11.dtd">
<svg fill="#6FA1B6" height="200px" width="200px" version="1.1" id="Capa_1" xmlns="http://www.w3.org/2000/svg" xmlns:xlink="http://www.w3.org/1999/xlink" 
	 viewBox="0 0 471.455 471.455" xml:space="preserve">
<g>
	<path d="M402.345,7.128C399.433,2.682,394.469,0,389.152,0H82.298c-5.317,0-10.281,2.682-13.193,7.128
		c-2.914,4.447-3.408,10.065-1.28,14.943l40.06,92.267c11.961,25.763,59.759,41.14,127.841,41.14
		c40.876,0,111.841-5.373,127.98-41.494l39.921-91.912C405.754,17.193,405.275,11.575,402.345,7.128z M144.909,44.137l2.296,14.012
		c-15.567-4.355-26.203-9.464-32.354-14.012H144.909z M176.877,44.137h43.065v23.845c-14.843-0.471-28.038-1.596-39.675-3.176
		L176.877,44.137z M219.942,99.556v23.884c-11.329-0.485-21.486-1.433-30.488-2.767l-3.87-23.521
		C196.451,98.346,207.888,99.187,219.942,99.556z M251.508,99.548c10.204-0.308,21.949-0.946,34.326-2.227l-3.884,23.675
		c-8.908,1.211-19.083,2.051-30.442,2.489V99.548z M251.508,67.997v-23.86h43.065l-3.438,20.877
		C279.485,66.51,266.305,67.559,251.508,67.997z M326.543,44.137h30.703c-6.103,5.002-16.955,10.242-33.094,14.573L326.543,44.137z
		 M136.677,101.406l-6.782-15.615c7.044,2.32,14.658,4.395,22.859,6.167l3.437,20.954
		C144.815,108.865,138.127,104.534,136.677,101.406z M315.151,113.506l3.47-21.141c7.752-1.58,15.32-3.498,22.579-5.796
		l-6.381,14.689C333.185,104.919,326.619,109.444,315.151,113.506z"/>
	<path d="M235.725,198.203c-13.07,0-23.675,10.597-23.675,23.676v83.85c0,13.078,10.604,23.675,23.675,23.675
		s23.675-10.597,23.675-23.675v-83.85C259.4,208.8,248.796,198.203,235.725,198.203z"/>
	<path d="M235.725,340.255c-13.07,0-23.675,10.597-23.675,23.676v83.85c0,13.078,10.604,23.675,23.675,23.675
		S259.4,460.858,259.4,447.78v-83.85C259.4,350.852,248.796,340.255,235.725,340.255z"/>
	<path d="M163.775,198.851c-12.747-3.029-25.494,4.809-28.531,17.525l-19.498,81.554c-3.035,12.716,4.809,25.485,17.525,28.53
		c1.85,0.439,3.699,0.655,5.518,0.655c10.713,0,20.408-7.314,23.013-18.181l19.499-81.554
		C184.336,214.665,176.492,201.895,163.775,198.851z"/>
	<path d="M130.743,337.002c-12.747-3.013-25.493,4.809-28.53,17.526l-19.498,81.553c-3.036,12.717,4.811,25.486,17.525,28.53
		c1.85,0.44,3.699,0.655,5.518,0.655c10.712,0,20.408-7.314,23.012-18.18l19.5-81.553
		C151.305,352.817,143.46,340.047,130.743,337.002z"/>
	<path d="M338.179,326.46c12.717-3.045,20.56-15.814,17.525-28.53l-19.498-81.554c-3.051-12.701-15.752-20.507-28.53-17.525
		c-12.717,3.045-20.562,15.814-17.526,28.53l19.499,81.554c2.604,10.866,12.3,18.181,23.013,18.181
		C334.479,327.115,336.33,326.899,338.179,326.46z"/>
	<path d="M369.238,354.528c-3.036-12.709-15.768-20.5-28.53-17.526c-12.717,3.045-20.563,15.815-17.526,28.532l19.499,81.553
		c2.605,10.865,12.3,18.18,23.013,18.18c1.818,0,3.668-0.216,5.518-0.655c12.717-3.044,20.561-15.813,17.525-28.53L369.238,354.528z
		"/>
</g>
</svg>