<?xml version="1.0" encoding="iso-8859-1"?>
<!-- Uploaded to: SVG Repo, www.svgrepo.com, Generator: SVG Repo Mixer Tools -->
<!DOCTYPE svg PUBLIC "-//W3C//DTD SVG 1.1//EN" "http://www.w3.org/Graphics/SVG/1.1/DTD/svg11.dtd">
<svg fill="#6FA1B6" height="200px" width="200px" version="1.1" id="Capa_1" xmlns="http://www.w3.org/2000/svg" xmlns:xlink="http://www.w3.org/1999/xlink" 
	 viewBox="0 0 500.063 500.063" xml:space="preserve">
<g>
	<path d="M271.487,223.874h-43.705c-4.713,0-8.541,3.834-8.541,8.548v28.055h60.787v-28.055
		C280.028,227.708,276.201,223.874,271.487,223.874z"/>
	<path d="M494.995,230.141L279.043,26.89c-12.878-12.115-32.877-12.37-46.048-0.586L5.368,229.863
		c-4.972,4.448-6.69,11.5-4.309,17.734c2.382,6.227,8.362,10.343,15.029,10.343h37.223v190.434
		c0,18.805,15.253,34.056,34.058,34.056h323.769c18.806,0,34.057-15.251,34.057-34.056V257.94h38.78
		c6.598,0,12.524-4.023,14.952-10.158C501.362,241.655,499.804,234.658,494.995,230.141z M329.037,363.631
		c0,9.382-7.613,16.995-16.996,16.995H187.236c-9.39,0-16.995-7.613-16.995-16.995v-84.69c0-9.383,7.605-16.996,16.995-16.996h0.591
		v-33.977c0-19.492,15.859-35.351,35.343-35.351h52.93c19.486,0,35.351,15.859,35.351,35.351v33.977h0.591
		c9.383,0,16.996,7.613,16.996,16.996V363.631z"/>
	<path d="M249.635,291.193c-11.52,0-20.852,9.347-20.852,20.868c0,6.814,3.31,12.8,8.354,16.606v17.694
		c0,6.901,5.598,12.498,12.498,12.498c6.908,0,12.499-5.597,12.499-12.498v-17.694c5.044-3.806,8.361-9.792,8.361-16.606
		C270.495,300.541,261.156,291.193,249.635,291.193z"/>
</g>
</svg>